<svg width="29" height="29" viewBox="0 0 29 29" fill="none" xmlns="http://www.w3.org/2000/svg">
<g clip-path="url(#clip0_4_763)">
<path d="M9.62891 16.6511C9.76196 18.3213 11.082 19.6221 13.449 19.7761V21.0086H14.4994V19.7674C16.9504 19.5958 18.3825 18.2863 18.3825 16.385C18.3825 14.657 17.2866 13.7659 15.3275 13.3037L14.4994 13.1076V9.7515C15.5498 9.87055 16.2186 10.4448 16.3797 11.2396H18.2214C18.0884 9.6307 16.7088 8.37193 14.4994 8.23538V7.00287H13.449V8.26164C11.3569 8.46647 9.93003 9.72524 9.93003 11.5057C9.93003 13.0814 10.991 14.0828 12.7539 14.4942L13.449 14.6658V18.2267C12.3723 18.0639 11.6597 17.4739 11.4987 16.6511H9.62891ZM13.4402 12.859C12.4073 12.6192 11.8471 12.1307 11.8471 11.3954C11.8471 10.5726 12.4511 9.95633 13.449 9.77601V12.8573L13.4402 12.859ZM14.6517 14.9476C15.907 15.2383 16.4865 15.7092 16.4865 16.5408C16.4865 17.4897 15.7652 18.141 14.4994 18.26V14.9126L14.6517 14.9476Z" fill="#131313"/>
<path d="M14.0058 26.2608C10.7555 26.2608 7.63841 24.9697 5.34014 22.6714C3.04187 20.3731 1.75072 17.256 1.75072 14.0058C1.75072 10.7555 3.04187 7.63841 5.34014 5.34014C7.63841 3.04187 10.7555 1.75072 14.0058 1.75072C17.256 1.75072 20.3731 3.04187 22.6714 5.34014C24.9697 7.63841 26.2608 10.7555 26.2608 14.0058C26.2608 17.256 24.9697 20.3731 22.6714 22.6714C20.3731 24.9697 17.256 26.2608 14.0058 26.2608ZM14.0058 28.0115C17.7203 28.0115 21.2827 26.5359 23.9093 23.9093C26.5359 21.2827 28.0115 17.7203 28.0115 14.0058C28.0115 10.2912 26.5359 6.72878 23.9093 4.10219C21.2827 1.4756 17.7203 0 14.0058 0C10.2912 0 6.72878 1.4756 4.10219 4.10219C1.4756 6.72878 0 10.2912 0 14.0058C0 17.7203 1.4756 21.2827 4.10219 23.9093C6.72878 26.5359 10.2912 28.0115 14.0058 28.0115Z" fill="#131313"/>
<path d="M14.0058 23.6348C11.452 23.6348 9.00286 22.6203 7.19708 20.8145C5.3913 19.0087 4.37683 16.5595 4.37683 14.0058C4.37683 11.452 5.3913 9.00286 7.19708 7.19708C9.00286 5.3913 11.452 4.37683 14.0058 4.37683C16.5595 4.37683 19.0087 5.3913 20.8145 7.19708C22.6203 9.00286 23.6348 11.452 23.6348 14.0058C23.6348 16.5595 22.6203 19.0087 20.8145 20.8145C19.0087 22.6203 16.5595 23.6348 14.0058 23.6348ZM14.0058 24.5101C15.3852 24.5101 16.7512 24.2384 18.0256 23.7105C19.3001 23.1826 20.458 22.4089 21.4335 21.4335C22.4089 20.458 23.1826 19.3001 23.7105 18.0256C24.2384 16.7512 24.5101 15.3852 24.5101 14.0058C24.5101 12.6263 24.2384 11.2604 23.7105 9.98596C23.1826 8.71151 22.4089 7.55353 21.4335 6.57811C20.458 5.60269 19.3001 4.82895 18.0256 4.30106C16.7512 3.77317 15.3852 3.50146 14.0058 3.50146C11.2199 3.50146 8.54805 4.60817 6.57811 6.57811C4.60817 8.54805 3.50146 11.2199 3.50146 14.0058C3.50146 16.7917 4.60817 19.4635 6.57811 21.4335C8.54805 23.4034 11.2199 24.5101 14.0058 24.5101Z" fill="#131313"/>
</g>
<defs>
<clipPath id="clip0_4_763">
<rect width="28.0115" height="28.0115" fill="white"/>
</clipPath>
</defs>
</svg>
