<svg width="26" height="26" viewBox="0 0 26 26" fill="none" xmlns="http://www.w3.org/2000/svg">
<mask id="path-1-outside-1_30_196" maskUnits="userSpaceOnUse" x="1" y="2" width="25" height="22" fill="black">
<rect fill="white" x="1" y="2" width="25" height="22"/>
<path d="M13.375 3.8125C12.6208 3.8125 11.8975 4.11211 11.3642 4.64542C10.8309 5.17872 10.5312 5.90204 10.5312 6.65625C10.5312 7.41046 10.8309 8.13378 11.3642 8.66708C11.8975 9.20039 12.6208 9.5 13.375 9.5C14.1292 9.5 14.8525 9.20039 15.3858 8.66708C15.9191 8.13378 16.2188 7.41046 16.2188 6.65625C16.2188 5.90204 15.9191 5.17872 15.3858 4.64542C14.8525 4.11211 14.1292 3.8125 13.375 3.8125ZM9.71875 6.65625C9.71875 5.68655 10.104 4.75657 10.7896 4.07089C11.4753 3.38521 12.4053 3 13.375 3C14.3447 3 15.2747 3.38521 15.9604 4.07089C16.646 4.75657 17.0312 5.68655 17.0312 6.65625C17.0312 7.62595 16.646 8.55593 15.9604 9.24161C15.2747 9.92729 14.3447 10.3125 13.375 10.3125C12.4053 10.3125 11.4753 9.92729 10.7896 9.24161C10.104 8.55593 9.71875 7.62595 9.71875 6.65625ZM5.25 6.25C4.60353 6.25 3.98355 6.50681 3.52643 6.96393C3.06931 7.42105 2.8125 8.04103 2.8125 8.6875C2.8125 9.33397 3.06931 9.95395 3.52643 10.4111C3.98355 10.8682 4.60353 11.125 5.25 11.125C5.89647 11.125 6.51645 10.8682 6.97357 10.4111C7.43069 9.95395 7.6875 9.33397 7.6875 8.6875C7.6875 8.04103 7.43069 7.42105 6.97357 6.96393C6.51645 6.50681 5.89647 6.25 5.25 6.25ZM2 8.6875C2 7.82555 2.34241 6.9989 2.9519 6.3894C3.5614 5.77991 4.38805 5.4375 5.25 5.4375C6.11195 5.4375 6.9386 5.77991 7.5481 6.3894C8.15759 6.9989 8.5 7.82555 8.5 8.6875C8.5 9.54945 8.15759 10.3761 7.5481 10.9856C6.9386 11.5951 6.11195 11.9375 5.25 11.9375C4.38805 11.9375 3.5614 11.5951 2.9519 10.9856C2.34241 10.3761 2 9.54945 2 8.6875ZM19.0625 8.6875C19.0625 8.04103 19.3193 7.42105 19.7764 6.96393C20.2335 6.50681 20.8535 6.25 21.5 6.25C22.1465 6.25 22.7665 6.50681 23.2236 6.96393C23.6807 7.42105 23.9375 8.04103 23.9375 8.6875C23.9375 9.33397 23.6807 9.95395 23.2236 10.4111C22.7665 10.8682 22.1465 11.125 21.5 11.125C20.8535 11.125 20.2335 10.8682 19.7764 10.4111C19.3193 9.95395 19.0625 9.33397 19.0625 8.6875ZM21.5 5.4375C20.638 5.4375 19.8114 5.77991 19.2019 6.3894C18.5924 6.9989 18.25 7.82555 18.25 8.6875C18.25 9.54945 18.5924 10.3761 19.2019 10.9856C19.8114 11.5951 20.638 11.9375 21.5 11.9375C22.362 11.9375 23.1886 11.5951 23.7981 10.9856C24.4076 10.3761 24.75 9.54945 24.75 8.6875C24.75 7.82555 24.4076 6.9989 23.7981 6.3894C23.1886 5.77991 22.362 5.4375 21.5 5.4375ZM8.5 13.9688C8.5 13.43 8.71401 12.9134 9.09494 12.5324C9.47587 12.1515 9.99253 11.9375 10.5312 11.9375H16.2188C16.7575 11.9375 17.2741 12.1515 17.6551 12.5324C18.036 12.9134 18.25 13.43 18.25 13.9688V18.4375C18.25 19.7304 17.7364 20.9704 16.8221 21.8846C15.9079 22.7989 14.6679 23.3125 13.375 23.3125C12.0821 23.3125 10.8421 22.7989 9.92785 21.8846C9.01361 20.9704 8.5 19.7304 8.5 18.4375V13.9688ZM10.5312 12.75C10.208 12.75 9.89802 12.8784 9.66946 13.107C9.4409 13.3355 9.3125 13.6455 9.3125 13.9688V18.4375C9.3125 19.5149 9.74051 20.5483 10.5024 21.3101C11.2642 22.072 12.2976 22.5 13.375 22.5C14.4524 22.5 15.4858 22.072 16.2476 21.3101C17.0095 20.5483 17.4375 19.5149 17.4375 18.4375V13.9688C17.4375 13.6455 17.3091 13.3355 17.0805 13.107C16.852 12.8784 16.542 12.75 16.2188 12.75H10.5312ZM7.76062 13.3244C7.71176 13.5357 7.68723 13.7519 7.6875 13.9688V14.1857L3.716 15.2501C3.40408 15.3338 3.13818 15.538 2.97669 15.8177C2.81521 16.0974 2.77135 16.4298 2.85475 16.7418L3.59087 19.4889C3.74103 20.0496 4.00959 20.5716 4.37848 21.0198C4.74737 21.4679 5.20802 21.8319 5.7294 22.087C6.25078 22.3421 6.82079 22.4826 7.40102 22.4989C7.98125 22.5152 8.55824 22.407 9.09312 22.1815C9.28433 22.3998 9.49098 22.6026 9.71306 22.7901C9.06607 23.117 8.3543 23.2956 7.62958 23.3127C6.90487 23.3299 6.18545 23.1852 5.52371 22.8892C4.86198 22.5932 4.27458 22.1533 3.80431 21.6017C3.33403 21.05 2.9927 20.4004 2.80519 19.7001L2.06987 16.9523C2.00082 16.6946 1.9832 16.4258 2.01803 16.1613C2.05285 15.8968 2.13943 15.6418 2.27282 15.4108C2.40621 15.1798 2.58381 14.9773 2.79546 14.8149C3.00712 14.6525 3.24869 14.5334 3.50638 14.4644L7.76062 13.3244ZM17.0369 22.7901C17.3311 22.9379 17.6436 23.0568 17.9746 23.1467C19.2234 23.4813 20.554 23.306 21.6736 22.6595C22.7933 22.0129 23.6102 20.9482 23.9448 19.6993L24.6809 16.9531C24.8204 16.4328 24.7475 15.8784 24.4783 15.4118C24.2091 14.9453 23.7655 14.6048 23.2453 14.4652L18.9894 13.3244C19.0381 13.5319 19.0625 13.7467 19.0625 13.9688V14.1857L23.0348 15.2501C23.3467 15.3338 23.6126 15.538 23.7741 15.8177C23.9356 16.0974 23.9795 16.4298 23.8961 16.7418L23.1608 19.4889C23.0106 20.0498 22.742 20.572 22.373 21.0203C22.004 21.4686 21.5432 21.8327 21.0216 22.0878C20.5001 22.343 19.9298 22.4834 19.3494 22.4995C18.769 22.5157 18.1918 22.4073 17.6569 22.1815C17.4657 22.3993 17.259 22.6026 17.0369 22.7901Z"/>
</mask>
<path d="M13.375 3.8125C12.6208 3.8125 11.8975 4.11211 11.3642 4.64542C10.8309 5.17872 10.5312 5.90204 10.5312 6.65625C10.5312 7.41046 10.8309 8.13378 11.3642 8.66708C11.8975 9.20039 12.6208 9.5 13.375 9.5C14.1292 9.5 14.8525 9.20039 15.3858 8.66708C15.9191 8.13378 16.2188 7.41046 16.2188 6.65625C16.2188 5.90204 15.9191 5.17872 15.3858 4.64542C14.8525 4.11211 14.1292 3.8125 13.375 3.8125ZM9.71875 6.65625C9.71875 5.68655 10.104 4.75657 10.7896 4.07089C11.4753 3.38521 12.4053 3 13.375 3C14.3447 3 15.2747 3.38521 15.9604 4.07089C16.646 4.75657 17.0312 5.68655 17.0312 6.65625C17.0312 7.62595 16.646 8.55593 15.9604 9.24161C15.2747 9.92729 14.3447 10.3125 13.375 10.3125C12.4053 10.3125 11.4753 9.92729 10.7896 9.24161C10.104 8.55593 9.71875 7.62595 9.71875 6.65625ZM5.25 6.25C4.60353 6.25 3.98355 6.50681 3.52643 6.96393C3.06931 7.42105 2.8125 8.04103 2.8125 8.6875C2.8125 9.33397 3.06931 9.95395 3.52643 10.4111C3.98355 10.8682 4.60353 11.125 5.25 11.125C5.89647 11.125 6.51645 10.8682 6.97357 10.4111C7.43069 9.95395 7.6875 9.33397 7.6875 8.6875C7.6875 8.04103 7.43069 7.42105 6.97357 6.96393C6.51645 6.50681 5.89647 6.25 5.25 6.25ZM2 8.6875C2 7.82555 2.34241 6.9989 2.9519 6.3894C3.5614 5.77991 4.38805 5.4375 5.25 5.4375C6.11195 5.4375 6.9386 5.77991 7.5481 6.3894C8.15759 6.9989 8.5 7.82555 8.5 8.6875C8.5 9.54945 8.15759 10.3761 7.5481 10.9856C6.9386 11.5951 6.11195 11.9375 5.25 11.9375C4.38805 11.9375 3.5614 11.5951 2.9519 10.9856C2.34241 10.3761 2 9.54945 2 8.6875ZM19.0625 8.6875C19.0625 8.04103 19.3193 7.42105 19.7764 6.96393C20.2335 6.50681 20.8535 6.25 21.5 6.25C22.1465 6.25 22.7665 6.50681 23.2236 6.96393C23.6807 7.42105 23.9375 8.04103 23.9375 8.6875C23.9375 9.33397 23.6807 9.95395 23.2236 10.4111C22.7665 10.8682 22.1465 11.125 21.5 11.125C20.8535 11.125 20.2335 10.8682 19.7764 10.4111C19.3193 9.95395 19.0625 9.33397 19.0625 8.6875ZM21.5 5.4375C20.638 5.4375 19.8114 5.77991 19.2019 6.3894C18.5924 6.9989 18.25 7.82555 18.25 8.6875C18.25 9.54945 18.5924 10.3761 19.2019 10.9856C19.8114 11.5951 20.638 11.9375 21.5 11.9375C22.362 11.9375 23.1886 11.5951 23.7981 10.9856C24.4076 10.3761 24.75 9.54945 24.75 8.6875C24.75 7.82555 24.4076 6.9989 23.7981 6.3894C23.1886 5.77991 22.362 5.4375 21.5 5.4375ZM8.5 13.9688C8.5 13.43 8.71401 12.9134 9.09494 12.5324C9.47587 12.1515 9.99253 11.9375 10.5312 11.9375H16.2188C16.7575 11.9375 17.2741 12.1515 17.6551 12.5324C18.036 12.9134 18.25 13.43 18.25 13.9688V18.4375C18.25 19.7304 17.7364 20.9704 16.8221 21.8846C15.9079 22.7989 14.6679 23.3125 13.375 23.3125C12.0821 23.3125 10.8421 22.7989 9.92785 21.8846C9.01361 20.9704 8.5 19.7304 8.5 18.4375V13.9688ZM10.5312 12.75C10.208 12.75 9.89802 12.8784 9.66946 13.107C9.4409 13.3355 9.3125 13.6455 9.3125 13.9688V18.4375C9.3125 19.5149 9.74051 20.5483 10.5024 21.3101C11.2642 22.072 12.2976 22.5 13.375 22.5C14.4524 22.5 15.4858 22.072 16.2476 21.3101C17.0095 20.5483 17.4375 19.5149 17.4375 18.4375V13.9688C17.4375 13.6455 17.3091 13.3355 17.0805 13.107C16.852 12.8784 16.542 12.75 16.2188 12.75H10.5312ZM7.76062 13.3244C7.71176 13.5357 7.68723 13.7519 7.6875 13.9688V14.1857L3.716 15.2501C3.40408 15.3338 3.13818 15.538 2.97669 15.8177C2.81521 16.0974 2.77135 16.4298 2.85475 16.7418L3.59087 19.4889C3.74103 20.0496 4.00959 20.5716 4.37848 21.0198C4.74737 21.4679 5.20802 21.8319 5.7294 22.087C6.25078 22.3421 6.82079 22.4826 7.40102 22.4989C7.98125 22.5152 8.55824 22.407 9.09312 22.1815C9.28433 22.3998 9.49098 22.6026 9.71306 22.7901C9.06607 23.117 8.3543 23.2956 7.62958 23.3127C6.90487 23.3299 6.18545 23.1852 5.52371 22.8892C4.86198 22.5932 4.27458 22.1533 3.80431 21.6017C3.33403 21.05 2.9927 20.4004 2.80519 19.7001L2.06987 16.9523C2.00082 16.6946 1.9832 16.4258 2.01803 16.1613C2.05285 15.8968 2.13943 15.6418 2.27282 15.4108C2.40621 15.1798 2.58381 14.9773 2.79546 14.8149C3.00712 14.6525 3.24869 14.5334 3.50638 14.4644L7.76062 13.3244ZM17.0369 22.7901C17.3311 22.9379 17.6436 23.0568 17.9746 23.1467C19.2234 23.4813 20.554 23.306 21.6736 22.6595C22.7933 22.0129 23.6102 20.9482 23.9448 19.6993L24.6809 16.9531C24.8204 16.4328 24.7475 15.8784 24.4783 15.4118C24.2091 14.9453 23.7655 14.6048 23.2453 14.4652L18.9894 13.3244C19.0381 13.5319 19.0625 13.7467 19.0625 13.9688V14.1857L23.0348 15.2501C23.3467 15.3338 23.6126 15.538 23.7741 15.8177C23.9356 16.0974 23.9795 16.4298 23.8961 16.7418L23.1608 19.4889C23.0106 20.0498 22.742 20.572 22.373 21.0203C22.004 21.4686 21.5432 21.8327 21.0216 22.0878C20.5001 22.343 19.9298 22.4834 19.3494 22.4995C18.769 22.5157 18.1918 22.4073 17.6569 22.1815C17.4657 22.3993 17.259 22.6026 17.0369 22.7901Z" fill="black"/>
<path d="M13.375 3.8125C12.6208 3.8125 11.8975 4.11211 11.3642 4.64542C10.8309 5.17872 10.5312 5.90204 10.5312 6.65625C10.5312 7.41046 10.8309 8.13378 11.3642 8.66708C11.8975 9.20039 12.6208 9.5 13.375 9.5C14.1292 9.5 14.8525 9.20039 15.3858 8.66708C15.9191 8.13378 16.2188 7.41046 16.2188 6.65625C16.2188 5.90204 15.9191 5.17872 15.3858 4.64542C14.8525 4.11211 14.1292 3.8125 13.375 3.8125ZM9.71875 6.65625C9.71875 5.68655 10.104 4.75657 10.7896 4.07089C11.4753 3.38521 12.4053 3 13.375 3C14.3447 3 15.2747 3.38521 15.9604 4.07089C16.646 4.75657 17.0312 5.68655 17.0312 6.65625C17.0312 7.62595 16.646 8.55593 15.9604 9.24161C15.2747 9.92729 14.3447 10.3125 13.375 10.3125C12.4053 10.3125 11.4753 9.92729 10.7896 9.24161C10.104 8.55593 9.71875 7.62595 9.71875 6.65625ZM5.25 6.25C4.60353 6.25 3.98355 6.50681 3.52643 6.96393C3.06931 7.42105 2.8125 8.04103 2.8125 8.6875C2.8125 9.33397 3.06931 9.95395 3.52643 10.4111C3.98355 10.8682 4.60353 11.125 5.25 11.125C5.89647 11.125 6.51645 10.8682 6.97357 10.4111C7.43069 9.95395 7.6875 9.33397 7.6875 8.6875C7.6875 8.04103 7.43069 7.42105 6.97357 6.96393C6.51645 6.50681 5.89647 6.25 5.25 6.25ZM2 8.6875C2 7.82555 2.34241 6.9989 2.9519 6.3894C3.5614 5.77991 4.38805 5.4375 5.25 5.4375C6.11195 5.4375 6.9386 5.77991 7.5481 6.3894C8.15759 6.9989 8.5 7.82555 8.5 8.6875C8.5 9.54945 8.15759 10.3761 7.5481 10.9856C6.9386 11.5951 6.11195 11.9375 5.25 11.9375C4.38805 11.9375 3.5614 11.5951 2.9519 10.9856C2.34241 10.3761 2 9.54945 2 8.6875ZM19.0625 8.6875C19.0625 8.04103 19.3193 7.42105 19.7764 6.96393C20.2335 6.50681 20.8535 6.25 21.5 6.25C22.1465 6.25 22.7665 6.50681 23.2236 6.96393C23.6807 7.42105 23.9375 8.04103 23.9375 8.6875C23.9375 9.33397 23.6807 9.95395 23.2236 10.4111C22.7665 10.8682 22.1465 11.125 21.5 11.125C20.8535 11.125 20.2335 10.8682 19.7764 10.4111C19.3193 9.95395 19.0625 9.33397 19.0625 8.6875ZM21.5 5.4375C20.638 5.4375 19.8114 5.77991 19.2019 6.3894C18.5924 6.9989 18.25 7.82555 18.25 8.6875C18.25 9.54945 18.5924 10.3761 19.2019 10.9856C19.8114 11.5951 20.638 11.9375 21.5 11.9375C22.362 11.9375 23.1886 11.5951 23.7981 10.9856C24.4076 10.3761 24.75 9.54945 24.75 8.6875C24.75 7.82555 24.4076 6.9989 23.7981 6.3894C23.1886 5.77991 22.362 5.4375 21.5 5.4375ZM8.5 13.9688C8.5 13.43 8.71401 12.9134 9.09494 12.5324C9.47587 12.1515 9.99253 11.9375 10.5312 11.9375H16.2188C16.7575 11.9375 17.2741 12.1515 17.6551 12.5324C18.036 12.9134 18.25 13.43 18.25 13.9688V18.4375C18.25 19.7304 17.7364 20.9704 16.8221 21.8846C15.9079 22.7989 14.6679 23.3125 13.375 23.3125C12.0821 23.3125 10.8421 22.7989 9.92785 21.8846C9.01361 20.9704 8.5 19.7304 8.5 18.4375V13.9688ZM10.5312 12.75C10.208 12.75 9.89802 12.8784 9.66946 13.107C9.4409 13.3355 9.3125 13.6455 9.3125 13.9688V18.4375C9.3125 19.5149 9.74051 20.5483 10.5024 21.3101C11.2642 22.072 12.2976 22.5 13.375 22.5C14.4524 22.5 15.4858 22.072 16.2476 21.3101C17.0095 20.5483 17.4375 19.5149 17.4375 18.4375V13.9688C17.4375 13.6455 17.3091 13.3355 17.0805 13.107C16.852 12.8784 16.542 12.75 16.2188 12.75H10.5312ZM7.76062 13.3244C7.71176 13.5357 7.68723 13.7519 7.6875 13.9688V14.1857L3.716 15.2501C3.40408 15.3338 3.13818 15.538 2.97669 15.8177C2.81521 16.0974 2.77135 16.4298 2.85475 16.7418L3.59087 19.4889C3.74103 20.0496 4.00959 20.5716 4.37848 21.0198C4.74737 21.4679 5.20802 21.8319 5.7294 22.087C6.25078 22.3421 6.82079 22.4826 7.40102 22.4989C7.98125 22.5152 8.55824 22.407 9.09312 22.1815C9.28433 22.3998 9.49098 22.6026 9.71306 22.7901C9.06607 23.117 8.3543 23.2956 7.62958 23.3127C6.90487 23.3299 6.18545 23.1852 5.52371 22.8892C4.86198 22.5932 4.27458 22.1533 3.80431 21.6017C3.33403 21.05 2.9927 20.4004 2.80519 19.7001L2.06987 16.9523C2.00082 16.6946 1.9832 16.4258 2.01803 16.1613C2.05285 15.8968 2.13943 15.6418 2.27282 15.4108C2.40621 15.1798 2.58381 14.9773 2.79546 14.8149C3.00712 14.6525 3.24869 14.5334 3.50638 14.4644L7.76062 13.3244ZM17.0369 22.7901C17.3311 22.9379 17.6436 23.0568 17.9746 23.1467C19.2234 23.4813 20.554 23.306 21.6736 22.6595C22.7933 22.0129 23.6102 20.9482 23.9448 19.6993L24.6809 16.9531C24.8204 16.4328 24.7475 15.8784 24.4783 15.4118C24.2091 14.9453 23.7655 14.6048 23.2453 14.4652L18.9894 13.3244C19.0381 13.5319 19.0625 13.7467 19.0625 13.9688V14.1857L23.0348 15.2501C23.3467 15.3338 23.6126 15.538 23.7741 15.8177C23.9356 16.0974 23.9795 16.4298 23.8961 16.7418L23.1608 19.4889C23.0106 20.0498 22.742 20.572 22.373 21.0203C22.004 21.4686 21.5432 21.8327 21.0216 22.0878C20.5001 22.343 19.9298 22.4834 19.3494 22.4995C18.769 22.5157 18.1918 22.4073 17.6569 22.1815C17.4657 22.3993 17.259 22.6026 17.0369 22.7901Z" stroke="black" stroke-width="0.6" mask="url(#path-1-outside-1_30_196)"/>
</svg>
