<svg width="14" height="14" viewBox="0 0 14 14" fill="none" xmlns="http://www.w3.org/2000/svg">
<g clip-path="url(#clip0_51_3782)">
<path d="M3.021 12.75L1.107 10.836C0.731897 10.461 0.521109 9.95239 0.520996 9.422V5.25C0.520996 4.98478 0.626353 4.73043 0.813889 4.54289C1.00143 4.35536 1.25578 4.25 1.521 4.25C1.78621 4.25 2.04057 4.35536 2.2281 4.54289C2.41564 4.73043 2.521 4.98478 2.521 5.25V8.25M10.979 12.75L12.893 10.836C13.2681 10.461 13.4789 9.95239 13.479 9.422V5.25C13.479 4.98478 13.3736 4.73043 13.1861 4.54289C12.9986 4.35536 12.7442 4.25 12.479 4.25C12.2138 4.25 11.9594 4.35536 11.7719 4.54289C11.5844 4.73043 11.479 4.98478 11.479 5.25V8.25" stroke="black" stroke-linecap="round" stroke-linejoin="round"/>
<path d="M3.43595 10.078L2.72895 9.371C2.5468 9.1824 2.446 8.9298 2.44828 8.6676C2.45056 8.4054 2.55573 8.15459 2.74114 7.96918C2.92654 7.78377 3.17736 7.6786 3.43955 7.67633C3.70175 7.67405 3.95435 7.77484 4.14295 7.957L5.43595 9.25C5.81069 9.62515 6.02111 10.1338 6.02095 10.664V12.75M10.564 10.078L11.271 9.371C11.4531 9.1824 11.5539 8.9298 11.5516 8.6676C11.5493 8.4054 11.4442 8.15459 11.2588 7.96918C11.0734 7.78377 10.8226 7.6786 10.5604 7.67633C10.2982 7.67405 10.0456 7.77484 9.85695 7.957L8.56395 9.25C8.18922 9.62515 7.9788 10.1338 7.97895 10.664V12.75M9.02095 5.166C9.02095 4.039 7.02095 1.25 7.02095 1.25C7.02095 1.25 5.02095 4.04 5.02095 5.166C5.02095 5.718 5.23195 6.249 5.60695 6.64C5.98195 7.03 6.49095 7.25 7.02095 7.25C7.55095 7.25 8.06095 7.03 8.43595 6.64C8.81341 6.24228 9.02295 5.71432 9.02095 5.166Z" stroke="black" stroke-linecap="round" stroke-linejoin="round"/>
</g>
<defs>
<clipPath id="clip0_51_3782">
<rect width="14" height="14" fill="white"/>
</clipPath>
</defs>
</svg>
