<svg width="29" height="29" viewBox="0 0 29 29" fill="none" xmlns="http://www.w3.org/2000/svg">
<path d="M9.80402 10.5043C9.80402 10.3186 9.8778 10.1405 10.0091 10.0091C10.1405 9.87781 10.3186 9.80403 10.5043 9.80403H17.5072C17.6929 9.80403 17.871 9.87781 18.0024 10.0091C18.1337 10.1405 18.2075 10.3186 18.2075 10.5043C18.2075 10.69 18.1337 10.8682 18.0024 10.9995C17.871 11.1308 17.6929 11.2046 17.5072 11.2046H10.5043C10.3186 11.2046 10.1405 11.1308 10.0091 10.9995C9.8778 10.8682 9.80402 10.69 9.80402 10.5043ZM10.5043 14.0058C10.3186 14.0058 10.1405 14.0795 10.0091 14.2109C9.8778 14.3422 9.80402 14.5203 9.80402 14.706C9.80402 14.8918 9.8778 15.0699 10.0091 15.2012C10.1405 15.3326 10.3186 15.4063 10.5043 15.4063H17.5072C17.6929 15.4063 17.871 15.3326 18.0024 15.2012C18.1337 15.0699 18.2075 14.8918 18.2075 14.706C18.2075 14.5203 18.1337 14.3422 18.0024 14.2109C17.871 14.0795 17.6929 14.0058 17.5072 14.0058H10.5043ZM9.80402 18.9078C9.80402 18.722 9.8778 18.5439 10.0091 18.4126C10.1405 18.2813 10.3186 18.2075 10.5043 18.2075H13.3055C13.4912 18.2075 13.6693 18.2813 13.8006 18.4126C13.932 18.5439 14.0058 18.722 14.0058 18.9078C14.0058 19.0935 13.932 19.2716 13.8006 19.403C13.6693 19.5343 13.4912 19.6081 13.3055 19.6081H10.5043C10.3186 19.6081 10.1405 19.5343 10.0091 19.403C9.8778 19.2716 9.80402 19.0935 9.80402 18.9078ZM8.40345 3.50144C8.40345 3.31571 8.47723 3.13759 8.60856 3.00626C8.73989 2.87493 8.91801 2.80115 9.10374 2.80115C9.28946 2.80115 9.46759 2.87493 9.59891 3.00626C9.73024 3.13759 9.80402 3.31571 9.80402 3.50144V4.20172H13.3055V3.50144C13.3055 3.31571 13.3792 3.13759 13.5106 3.00626C13.6419 2.87493 13.82 2.80115 14.0058 2.80115C14.1915 2.80115 14.3696 2.87493 14.5009 3.00626C14.6323 3.13759 14.706 3.31571 14.706 3.50144V4.20172H18.2075V3.50144C18.2075 3.31571 18.2813 3.13759 18.4126 3.00626C18.5439 2.87493 18.722 2.80115 18.9078 2.80115C19.0935 2.80115 19.2716 2.87493 19.403 3.00626C19.5343 3.13759 19.6081 3.31571 19.6081 3.50144V4.20172H20.3083C20.8655 4.20172 21.3999 4.42306 21.7939 4.81705C22.1879 5.21104 22.4092 5.7454 22.4092 6.30259V12.9301C21.9526 13.1262 21.524 13.4091 21.1515 13.7831L21.0086 13.9259V6.30259C21.0086 6.11686 20.9349 5.93874 20.8035 5.80741C20.6722 5.67608 20.4941 5.6023 20.3083 5.6023H7.70316C7.51743 5.6023 7.33931 5.67608 7.20798 5.80741C7.07665 5.93874 7.00287 6.11686 7.00287 6.30259V23.1095C7.00287 23.2952 7.07665 23.4734 7.20798 23.6047C7.33931 23.736 7.51743 23.8098 7.70316 23.8098H12.9133L12.685 24.7244C12.6439 24.8887 12.6187 25.0507 12.6094 25.2104H7.70316C7.14598 25.2104 6.61161 24.989 6.21762 24.595C5.82364 24.2011 5.60229 23.6667 5.60229 23.1095V6.30259C5.60229 5.7454 5.82364 5.21104 6.21762 4.81705C6.61161 4.42306 7.14598 4.20172 7.70316 4.20172H8.40345V3.50144ZM22.1431 14.7733L15.3783 21.5381C14.9842 21.9323 14.7044 22.426 14.5688 22.9666L14.0436 25.0647C13.9918 25.2734 13.9948 25.4919 14.0524 25.699C14.1101 25.9062 14.2203 26.0949 14.3724 26.2468C14.5245 26.3988 14.7133 26.5088 14.9205 26.5662C15.1277 26.6237 15.3462 26.6265 15.5548 26.5745L17.6529 26.0507C18.1935 25.9151 18.6872 25.6353 19.0814 25.2412L25.8462 18.4764C26.331 17.9839 26.6015 17.3196 26.5987 16.6285C26.5959 15.9374 26.32 15.2755 25.8312 14.7869C25.3425 14.2983 24.6804 14.0227 23.9893 14.0201C23.2982 14.0176 22.6341 14.2883 22.1417 14.7733" fill="#131313"/>
</svg>
