<svg width="28" height="28" viewBox="0 0 28 28" fill="none" xmlns="http://www.w3.org/2000/svg">
<path d="M18.6667 23.3333L18.2537 23.7463L18.6667 24.1582L19.0797 23.7463L18.6667 23.3333ZM5.25 17.5C5.25 17.6547 5.31146 17.8031 5.42085 17.9125C5.53025 18.0219 5.67862 18.0833 5.83333 18.0833C5.98804 18.0833 6.13642 18.0219 6.24581 17.9125C6.35521 17.8031 6.41667 17.6547 6.41667 17.5H5.25ZM12.4203 17.913L18.2537 23.7463L19.0797 22.9203L13.2463 17.087L12.4203 17.913ZM19.0797 23.7463L24.913 17.913L24.087 17.087L18.2537 22.9203L19.0797 23.7463ZM19.25 23.3333V11.0833H18.0833V23.3333H19.25ZM5.25 11.0833V17.5H6.41667V11.0833H5.25ZM12.25 4.08333C10.3935 4.08333 8.61301 4.82083 7.30025 6.13358C5.9875 7.44634 5.25 9.22681 5.25 11.0833H6.41667C6.41667 9.53623 7.03125 8.0525 8.12521 6.95854C9.21917 5.86458 10.7029 5.24999 12.25 5.24999V4.08333ZM19.25 11.0833C19.25 9.22681 18.5125 7.44634 17.1997 6.13358C15.887 4.82083 14.1065 4.08333 12.25 4.08333V5.24999C13.7971 5.24999 15.2808 5.86458 16.3748 6.95854C17.4688 8.0525 18.0833 9.53623 18.0833 11.0833H19.25Z" fill="black"/>
</svg>
