<svg width="2694" height="974" viewBox="0 0 2694 974" fill="none" xmlns="http://www.w3.org/2000/svg">
<path d="M1347 0C1523.89 -9.87325e-06 1699.05 25.1935 1862.47 74.1416C2025.9 123.09 2174.39 194.834 2299.47 285.278C2424.55 375.723 2523.77 483.095 2591.47 601.267C2659.16 719.438 2694 846.093 2694 974H2594.12C2527.59 869.702 2435.99 774.64 2323.47 693.278C2198.39 602.834 2049.9 531.09 1886.47 482.142C1723.05 433.194 1547.89 408 1371 408C1194.11 408 1018.95 433.194 855.525 482.142C692.1 531.09 543.608 602.834 418.527 693.278C306.007 774.64 214.415 869.702 147.875 974H0C3.15871e-05 846.093 34.8412 719.438 102.534 601.267C170.227 483.095 269.447 375.723 394.527 285.278C519.608 194.834 668.1 123.09 831.525 74.1416C994.951 25.1935 1170.11 2.24763e-05 1347 0Z" fill="#AFFF6F" fill-opacity="0.4"/>
</svg>
