<svg width="29" height="29" viewBox="0 0 29 29" fill="none" xmlns="http://www.w3.org/2000/svg">
<path d="M22.1758 23.343H5.83576C5.21667 23.343 4.62293 23.097 4.18516 22.6593C3.7474 22.2215 3.50146 21.6278 3.50146 21.0087V10.5043C3.50146 9.88524 3.7474 9.29151 4.18516 8.85374C4.62293 8.41598 5.21667 8.17004 5.83576 8.17004H22.1758C22.7949 8.17004 23.3886 8.41598 23.8264 8.85374C24.2642 9.29151 24.5101 9.88524 24.5101 10.5043V21.0087C24.5101 21.6278 24.2642 22.2215 23.8264 22.6593C23.3886 23.097 22.7949 23.343 22.1758 23.343Z" stroke="#131313" stroke-width="1.5"/>
<path d="M19.2576 16.3396C19.1029 16.3396 18.9546 16.2781 18.8452 16.1687C18.7358 16.0593 18.6743 15.911 18.6743 15.7562C18.6743 15.6015 18.7358 15.4532 18.8452 15.3438C18.9546 15.2344 19.1029 15.1729 19.2576 15.1729C19.4124 15.1729 19.5607 15.2344 19.6701 15.3438C19.7795 15.4532 19.841 15.6015 19.841 15.7562C19.841 15.911 19.7795 16.0593 19.6701 16.1687C19.5607 16.2781 19.4124 16.3396 19.2576 16.3396Z" fill="#131313" stroke="#131313" stroke-width="1.5" stroke-linecap="round" stroke-linejoin="round"/>
<path d="M21.0087 8.17002V6.53952C21.0086 6.18179 20.9263 5.82887 20.7681 5.50801C20.6099 5.18715 20.3801 4.90694 20.0964 4.68902C19.8127 4.47109 19.4827 4.32128 19.132 4.25116C18.7812 4.18104 18.419 4.19247 18.0733 4.28459L5.23468 7.70783C4.73754 7.84031 4.29809 8.13333 3.98465 8.54132C3.67122 8.94932 3.50135 9.44943 3.50146 9.96393V10.5043" stroke="#131313" stroke-width="1.5"/>
</svg>
