<svg width="28" height="28" viewBox="0 0 28 28" fill="none" xmlns="http://www.w3.org/2000/svg">
<path d="M2.4805 9.71133C2.24717 9.40567 2.29967 9.0055 2.58083 8.78967C6.17183 6.041 9.97789 4.66667 13.999 4.66667C18.0201 4.66667 21.8266 6.04139 25.4183 8.79083C25.7123 9.03817 25.745 9.44183 25.5175 9.71133L14.4867 22.7465C14.4266 22.8173 14.3519 22.8742 14.2677 22.9132C14.1835 22.9522 14.0918 22.9724 13.999 22.9724C13.9062 22.9724 13.8145 22.9522 13.7303 22.9132C13.6461 22.8742 13.5714 22.8173 13.5113 22.7465L2.4805 9.71133Z" stroke="black" stroke-width="1.5"/>
<path d="M14 9.33334V11.6667M14 16.345L14.0117 16.3322" stroke="black" stroke-width="1.5" stroke-linecap="round" stroke-linejoin="round"/>
</svg>
